<?xml version="1.0" encoding="UTF-8"?>
<svg width="304px" height="41px" viewBox="0 0 304 41" version="1.1" xmlns="http://www.w3.org/2000/svg" xmlns:xlink="http://www.w3.org/1999/xlink">
    <!-- Generator: Sketch 44.1 (41455) - http://www.bohemiancoding.com/sketch -->
    <title>Logo</title>
    <desc>Created with Sketch.</desc>
    <defs></defs>
    <g id="Symbols" stroke="none" stroke-width="1" fill="none" fill-rule="evenodd">
        <g id="header" transform="translate(-40.000000, -27.000000)">
            <g id="Logo" transform="translate(40.000000, 27.000000)">
                <path d="M15.4220973,14.8503822 C14.9739503,14.8503822 14.6106555,14.4887646 14.6106555,14.0426867 C14.6106555,13.5966087 14.9739503,13.2349911 15.4220973,13.2349911 C15.8702442,13.2349911 16.2335391,13.5966087 16.2335391,14.0426867 C16.2335391,14.4887646 15.8702442,14.8503822 15.4220973,14.8503822 Z M17.2067412,14.2986318 C16.8308935,14.0545534 16.7231599,13.5534108 16.9661113,13.1792984 C17.2090628,12.805186 17.7106986,12.6997725 18.0865462,12.9438508 C18.4623939,13.1879291 18.5701275,13.6890717 18.3271761,14.0631842 C18.0842246,14.4372966 17.5825888,14.5427101 17.2067412,14.2986318 Z M19.0149379,14.8051738 C18.8255428,14.3990148 18.9997446,13.9169316 19.4040285,13.7284109 C19.8083124,13.5398902 20.2895843,13.716321 20.4789794,14.1224801 C20.6683745,14.5286391 20.4941727,15.0107223 20.0898888,15.199243 C19.6856049,15.3877637 19.204333,15.2113329 19.0149379,14.8051738 Z M20.2563718,16.1905191 C20.3187418,15.7467335 20.7274011,15.4373017 21.1691378,15.4993837 C21.6108746,15.5614658 21.9184121,15.9715525 21.8560421,16.4153381 C21.7936721,16.8591237 21.3850128,17.1685556 20.9432761,17.1064736 C20.5015393,17.0443915 20.1940018,16.6343047 20.2563718,16.1905191 Z M20.5491359,18.0247486 C20.8431468,17.6865278 21.3544059,17.6495882 21.6910652,17.9422417 C22.0277245,18.2348951 22.0622979,18.7463197 21.7682871,19.0845405 C21.4742762,19.4227613 20.9630171,19.4597009 20.6263578,19.1670475 C20.2896985,18.874394 20.2551251,18.3629694 20.5491359,18.0247486 Z M19.7992968,19.7276641 C20.2300833,19.604138 20.67898,19.8516096 20.8019358,20.2804072 C20.9248915,20.7092048 20.6753454,21.1569516 20.2445589,21.2804776 C19.8137724,21.4040037 19.3648757,21.1565322 19.2419199,20.7277345 C19.1189642,20.2989369 19.3685103,19.8511901 19.7992968,19.7276641 Z M18.2294078,20.7558716 C18.6601943,20.8793977 18.9097404,21.3271445 18.7867847,21.7559421 C18.663829,22.1847397 18.2149322,22.4322112 17.7841457,22.3086852 C17.3533592,22.1851592 17.1038131,21.7374124 17.2267688,21.3086147 C17.3497246,20.8798171 17.7986214,20.6323456 18.2294078,20.7558716 Z M16.3626301,20.7829226 C16.6566409,21.1211434 16.6220675,21.6325681 16.2854082,21.9252215 C15.9487489,22.217875 15.4374898,22.1809353 15.1434789,21.8427146 C14.8494681,21.5044938 14.8840415,20.9930691 15.2207008,20.7004157 C15.55736,20.4077622 16.0686192,20.4447019 16.3626301,20.7829226 Z M14.776137,19.8029589 C14.838507,20.2467445 14.5309695,20.6568312 14.0892328,20.7189133 C13.647496,20.7809953 13.2388368,20.4715635 13.1764668,20.0277779 C13.1140968,19.5839923 13.4216343,19.1739055 13.863371,19.1118235 C14.3051078,19.0497414 14.713767,19.3591733 14.776137,19.8029589 Z M13.9726462,18.1249552 C13.7832511,18.5311142 13.3019792,18.707545 12.8976953,18.5190243 C12.4934114,18.3305036 12.3192096,17.8484205 12.5086046,17.4422614 C12.6979997,17.0361023 13.1792716,16.8596716 13.5835555,17.0481923 C13.9878394,17.2367129 14.1620413,17.7187961 13.9726462,18.1249552 Z M14.2194996,16.2717476 C13.843652,16.5158259 13.3420162,16.4104124 13.0990647,16.0363 C12.8561133,15.6621876 12.9638469,15.161045 13.3396946,14.9169666 C13.7155422,14.6728883 14.217178,14.7783018 14.4601295,15.1524142 C14.7030809,15.5265267 14.5953473,16.0276693 14.2194996,16.2717476 Z" id="Oval" fill="#2C8EDE"></path>
                <g id="Logo-colored">
                    <path d="M17.083803,0 L22.3428517,3.80328209 L20.3340739,9.95712177 L13.8335322,9.95712177 L11.8247543,3.80328209 L17.083803,0 Z M30.7406735,6.53627601 L31.0945948,13.0168074 L25.0479982,15.3284306 L20.9570748,10.2765609 L24.4753416,4.84271052 L30.7406735,6.53627601 Z M34.1427309,21.3407344 L29.2538981,25.6094417 L23.7096577,22.2678359 L25.1719614,15.9339027 L31.6199552,15.3609224 L34.1427309,21.3407344 Z M24.7018061,33.1511791 L18.3077553,32.038227 L17.4155671,25.6266023 L23.2582153,22.7769524 L27.7613586,27.4273966 L24.7018061,33.1511791 Z M9.46580001,33.1511791 L6.40624748,27.4273966 L10.9093908,22.7769524 L16.752039,25.6266023 L15.8598508,32.038227 L9.46580001,33.1511791 Z M0.0248751866,21.3407344 L2.54765085,15.3609224 L8.99564472,15.9339027 L10.4579484,22.2678359 L4.91370795,25.6094417 L0.0248751866,21.3407344 Z M3.42693259,6.53627601 L9.69226449,4.84271052 L13.2105313,10.2765609 L9.11960784,15.3284306 L3.07301132,13.0168074 L3.42693259,6.53627601 Z" id="Polygon" fill="#2C8EDE"></path>
                    <path d="M58.1318359,20.6269531 L47.6728516,20.6269531 L47.6728516,13.3613281 L57.5898438,13.3613281 L57.5898438,11.0175781 L47.6728516,11.0175781 L47.6728516,4.23535156 L58.1318359,4.23535156 L58.1318359,1.86230469 L45.0361328,1.86230469 L45.0361328,23 L58.1318359,23 L58.1318359,20.6269531 Z M66.2458985,23 L66.2458985,6.46191406 L66.3777344,6.46191406 L77.95,23 L80.5134766,23 L80.5134766,1.86230469 L77.9060547,1.86230469 L77.9060547,18.4589844 L77.7742188,18.4589844 L66.2019532,1.86230469 L63.6384766,1.86230469 L63.6384766,23 L66.2458985,23 Z M94.7798829,23 L94.7798829,4.23535156 L101.591406,4.23535156 L101.591406,1.86230469 L85.3316407,1.86230469 L85.3316407,4.23535156 L92.1431642,4.23535156 L92.1431642,23 L94.7798829,23 Z M109.046289,4.20605469 L109.046289,12.3066406 L114.246485,12.3066406 C115.603913,12.3066406 116.651266,11.9550816 117.388574,11.2519531 C118.125883,10.5488246 118.494531,9.54785806 118.494531,8.24902344 C118.494531,6.97948584 118.108793,5.98828481 117.337305,5.27539062 C116.565817,4.56249644 115.496491,4.20605469 114.129297,4.20605469 L109.046289,4.20605469 Z M109.046289,14.6357422 L109.046289,23 L106.40957,23 L106.40957,1.86230469 L114.48086,1.86230469 C116.521885,1.86230469 118.15517,2.43602942 119.380762,3.58349609 C120.606354,4.73096277 121.219141,6.25682642 121.219141,8.16113281 C121.219141,9.63574956 120.843168,10.9101509 120.091211,11.984375 C119.339254,13.0585991 118.299226,13.805662 116.971094,14.2255859 L121.863672,23 L118.772852,23 L114.246485,14.6357422 L109.046289,14.6357422 Z M139.660352,20.6269531 L129.201367,20.6269531 L129.201367,13.3613281 L139.11836,13.3613281 L139.11836,11.0175781 L129.201367,11.0175781 L129.201367,4.23535156 L139.660352,4.23535156 L139.660352,1.86230469 L126.564649,1.86230469 L126.564649,23 L139.660352,23 L139.660352,20.6269531 Z M145.166992,1.86230469 L153.150391,1.86230469 C155.132823,1.86230469 156.756342,2.4921812 158.020996,3.75195312 C159.285651,5.01172505 159.917969,6.64256812 159.917969,8.64453125 C159.917969,10.6464944 159.280768,12.2822202 158.006348,13.5517578 C156.731927,14.8212954 155.103526,15.4560547 153.121094,15.4560547 L147.803711,15.4560547 L147.803711,23 L145.166992,23 L145.166992,1.86230469 Z M147.803711,4.20605469 L147.803711,13.1123047 L152.461914,13.1123047 C153.975594,13.1123047 155.145016,12.7192422 155.970215,11.9331055 C156.795415,11.1469687 157.208008,10.0507883 157.208008,8.64453125 C157.208008,7.24803989 156.795415,6.15918359 155.970215,5.37792969 C155.145016,4.59667578 153.975594,4.20605469 152.461914,4.20605469 L147.803711,4.20605469 Z M167.607227,4.20605469 L167.607227,12.3066406 L172.807422,12.3066406 C174.164851,12.3066406 175.212204,11.9550816 175.949512,11.2519531 C176.68682,10.5488246 177.055469,9.54785806 177.055469,8.24902344 C177.055469,6.97948584 176.669731,5.98828481 175.898242,5.27539062 C175.126754,4.56249644 174.057429,4.20605469 172.690235,4.20605469 L167.607227,4.20605469 Z M167.607227,14.6357422 L167.607227,23 L164.970508,23 L164.970508,1.86230469 L173.041797,1.86230469 C175.082823,1.86230469 176.716107,2.43602942 177.9417,3.58349609 C179.167292,4.73096277 179.780078,6.25682642 179.780078,8.16113281 C179.780078,9.63574956 179.404106,10.9101509 178.652149,11.984375 C177.900192,13.0585991 176.860163,13.805662 175.532032,14.2255859 L180.42461,23 L177.333789,23 L172.807422,14.6357422 L167.607227,14.6357422 Z M198.221289,20.6269531 L187.762305,20.6269531 L187.762305,13.3613281 L197.679297,13.3613281 L197.679297,11.0175781 L187.762305,11.0175781 L187.762305,4.23535156 L198.221289,4.23535156 L198.221289,1.86230469 L185.125586,1.86230469 L185.125586,23 L198.221289,23 L198.221289,20.6269531 Z M206.335352,23 L206.335352,6.46191406 L206.467188,6.46191406 L218.039454,23 L220.60293,23 L220.60293,1.86230469 L217.995508,1.86230469 L217.995508,18.4589844 L217.863672,18.4589844 L206.291407,1.86230469 L203.72793,1.86230469 L203.72793,23 L206.335352,23 Z M239.835157,20.6269531 L229.376172,20.6269531 L229.376172,13.3613281 L239.293164,13.3613281 L239.293164,11.0175781 L229.376172,11.0175781 L229.376172,4.23535156 L239.835157,4.23535156 L239.835157,1.86230469 L226.739454,1.86230469 L226.739454,23 L239.835157,23 L239.835157,20.6269531 Z M247.978516,1.86230469 L245.341797,1.86230469 L245.341797,15.5878906 C245.341797,17.8437613 246.086419,19.7016529 247.575684,21.1616211 C249.064949,22.6215893 251.118151,23.3515625 253.735352,23.3515625 C256.362318,23.3515625 258.417962,22.6215893 259.902344,21.1616211 C261.386727,19.7016529 262.128907,17.8437613 262.128907,15.5878906 L262.128907,1.86230469 L259.492188,1.86230469 L259.492188,15.4121094 C259.492188,17.0039142 258.991705,18.319819 257.990723,19.3598633 C256.989742,20.3999075 255.571299,20.9199219 253.735352,20.9199219 C251.909171,20.9199219 250.49317,20.3999075 249.487305,19.3598633 C248.481441,18.319819 247.978516,17.0039142 247.978516,15.4121094 L247.978516,1.86230469 Z M270.902149,4.20605469 L270.902149,12.3066406 L276.102344,12.3066406 C277.459773,12.3066406 278.507126,11.9550816 279.244434,11.2519531 C279.981742,10.5488246 280.350391,9.54785806 280.350391,8.24902344 C280.350391,6.97948584 279.964653,5.98828481 279.193165,5.27539062 C278.421676,4.56249644 277.352351,4.20605469 275.985157,4.20605469 L270.902149,4.20605469 Z M270.902149,14.6357422 L270.902149,23 L268.26543,23 L268.26543,1.86230469 L276.336719,1.86230469 C278.377745,1.86230469 280.01103,2.43602942 281.236622,3.58349609 C282.462214,4.73096277 283.075001,6.25682642 283.075001,8.16113281 C283.075001,9.63574956 282.699028,10.9101509 281.947071,11.984375 C281.195114,13.0585991 280.155085,13.805662 278.826954,14.2255859 L283.719532,23 L280.628711,23 L276.102344,14.6357422 L270.902149,14.6357422 Z M287.409766,17.1845703 C287.53672,19.049814 288.315521,20.5439397 289.746192,21.6669922 C291.176863,22.7900447 293.010341,23.3515625 295.24668,23.3515625 C297.678333,23.3515625 299.604583,22.7876033 301.025489,21.659668 C302.446394,20.5317326 303.156837,19.0009862 303.156837,17.0673828 C303.156837,15.5537034 302.678326,14.342778 301.72129,13.4345703 C300.764254,12.5263626 299.192004,11.7988309 297.004493,11.2519531 L294.792579,10.6660156 C293.357025,10.29492 292.32432,9.85302991 291.694434,9.34033203 C291.064548,8.82763416 290.74961,8.17090244 290.74961,7.37011719 C290.74961,6.33495576 291.181735,5.49512041 292.045997,4.85058594 C292.910259,4.20605146 294.02597,3.88378906 295.393165,3.88378906 C296.770125,3.88378906 297.888278,4.21093423 298.747657,4.86523438 C299.607036,5.51953452 300.095312,6.41308027 300.212501,7.54589844 L302.849219,7.54589844 C302.790625,5.7685458 302.072859,4.31836499 300.695899,3.1953125 C299.318939,2.07226001 297.580675,1.51074219 295.481055,1.51074219 C293.283779,1.51074219 291.489363,2.06737725 290.097754,3.18066406 C288.706146,4.29395088 288.010352,5.7294834 288.010352,7.48730469 C288.010352,10.2509904 289.885333,12.1113233 293.635352,13.0683594 L296.345313,13.7714844 C297.771101,14.1328143 298.808689,14.6015596 299.458106,15.1777344 C300.107523,15.7539091 300.432227,16.4912064 300.432227,17.3896484 C300.432227,18.4248099 299.965923,19.2817349 299.033301,19.9604492 C298.10068,20.6391635 296.921492,20.9785156 295.495704,20.9785156 C293.99179,20.9785156 292.741802,20.6318394 291.745704,19.9384766 C290.749605,19.2451137 290.188087,18.3271542 290.061133,17.1845703 L287.409766,17.1845703 Z" id="ENTREPRENEURS" stroke="#343434" fill="#272727"></path>
                    <path d="M46.4814453,40 L46.4814453,35.7275391 L50.8496094,35.7275391 L50.8496094,34.6337891 L46.4814453,34.6337891 L46.4814453,31.2431641 L51.2392578,31.2431641 L51.2392578,30.1357422 L45.2509766,30.1357422 L45.2509766,40 L46.4814453,40 Z M57.0458854,29.9033203 C58.4495383,29.9033203 59.5523918,30.3681594 60.3544792,31.2978516 C61.1565665,32.2275437 61.5576042,33.483065 61.5576042,35.0644531 C61.5576042,36.6412839 61.1577058,37.8968052 60.3578971,38.8310547 C59.5580884,39.7653042 58.4540956,40.2324219 57.0458854,40.2324219 C55.6331179,40.2324219 54.5245678,39.7653042 53.7202018,38.8310547 C52.9158358,37.8968052 52.5136589,36.6412839 52.5136589,35.0644531 C52.5136589,33.4785077 52.9203931,32.2218471 53.7338737,31.2944336 C54.5473543,30.3670201 55.6513472,29.9033203 57.0458854,29.9033203 Z M57.0458854,31.0380859 C56.0432762,31.0380859 55.2480368,31.400387 54.6601432,32.125 C54.0722497,32.849613 53.7783073,33.8294209 53.7783073,35.0644531 C53.7783073,36.2858134 54.0665531,37.2633427 54.6430534,37.9970703 C55.2195537,38.7307979 56.0204897,39.0976562 57.0458854,39.0976562 C58.0576092,39.0976562 58.8517094,38.7307979 59.4282096,37.9970703 C60.0047099,37.2633427 60.2929557,36.2858134 60.2929557,35.0644531 C60.2929557,33.8294209 60.0035706,32.849613 59.4247917,32.125 C58.8460127,31.400387 58.0530519,31.0380859 57.0458854,31.0380859 Z M64.5546615,31.2294922 L64.5546615,35.0029297 L66.9814193,35.0029297 C67.614886,35.0029297 68.1036506,34.8400081 68.4477279,34.5141602 C68.7918051,34.1883122 68.9638411,33.7223338 68.9638411,33.1162109 C68.9638411,32.5237601 68.7838299,32.0611996 68.4238021,31.7285156 C68.0637742,31.3958317 67.5647558,31.2294922 66.9267318,31.2294922 L64.5546615,31.2294922 Z M64.5546615,36.0966797 L64.5546615,40 L63.3241927,40 L63.3241927,30.1357422 L67.0907943,30.1357422 C68.043273,30.1357422 68.8054724,30.4034804 69.3774154,30.9389648 C69.9493583,31.4744493 70.2353255,32.186519 70.2353255,33.0751953 C70.2353255,33.7633498 70.0598715,34.3580704 69.7089583,34.859375 C69.3580451,35.3606796 68.8726984,35.7093089 68.2529036,35.9052734 L70.5361068,40 L69.093724,40 L66.9814193,36.0966797 L64.5546615,36.0966797 Z M75.2177213,37.4228516 C75.2815237,38.2750694 75.6472427,38.9563777 76.3148893,39.4667969 C76.9825359,39.9772161 77.8381588,40.2324219 78.8817838,40.2324219 C80.0119978,40.2324219 80.908636,39.9646837 81.5717252,39.4291992 C82.2348145,38.8937148 82.5663542,38.1725306 82.5663542,37.265625 C82.5663542,36.541012 82.3441884,35.9645204 81.8998502,35.5361328 C81.4555121,35.1077453 80.7229348,34.7659518 79.7020963,34.5107422 L78.6698698,34.2373047 C77.9908299,34.0641267 77.5043439,33.856772 77.2103971,33.6152344 C76.9164503,33.3736967 76.7694792,33.0592467 76.7694792,32.671875 C76.7694792,32.1705704 76.9688587,31.7695328 77.3676237,31.46875 C77.7663887,31.1679672 78.2938899,31.0175781 78.9501432,31.0175781 C79.5653807,31.0175781 80.0700957,31.1599921 80.4643034,31.4448242 C80.8585111,31.7296564 81.0989058,32.1249975 81.1854948,32.6308594 L82.4227995,32.6308594 C82.372669,31.8333293 82.0263183,31.1793645 81.383737,30.6689453 C80.7411556,30.1585261 79.9436376,29.9033203 78.9911588,29.9033203 C77.9475338,29.9033203 77.1055826,30.161944 76.4652799,30.6791992 C75.8249773,31.1964544 75.5048307,31.8743448 75.5048307,32.7128906 C75.5048307,33.4147171 75.7076282,33.9763976 76.1132292,34.3979492 C76.5188301,34.8195008 77.1682377,35.1442046 78.0614713,35.3720703 L79.3261198,35.7001953 C80.0051596,35.8688159 80.5041781,36.092121 80.8231901,36.3701172 C81.1422021,36.6481134 81.3017057,36.9967427 81.3017057,37.4160156 C81.3017057,37.9036483 81.0840972,38.3081039 80.6488737,38.6293945 C80.2136502,38.9506852 79.6633627,39.1113281 78.9979948,39.1113281 C78.2961684,39.1113281 77.7173981,38.9586604 77.2616667,38.6533203 C76.8059352,38.3479802 76.5393363,37.9378281 76.461862,37.4228516 L75.2177213,37.4228516 Z M88.3934896,29.9033203 C89.7971424,29.9033203 90.899996,30.3681594 91.7020833,31.2978516 C92.5041707,32.2275437 92.9052083,33.483065 92.9052083,35.0644531 C92.9052083,36.6412839 92.50531,37.8968052 91.7055013,38.8310547 C90.9056926,39.7653042 89.8016997,40.2324219 88.3934896,40.2324219 C86.9807221,40.2324219 85.872172,39.7653042 85.067806,38.8310547 C84.26344,37.8968052 83.861263,36.6412839 83.861263,35.0644531 C83.861263,33.4785077 84.2679972,32.2218471 85.0814779,31.2944336 C85.8949585,30.3670201 86.9989513,29.9033203 88.3934896,29.9033203 Z M88.3934896,31.0380859 C87.3908804,31.0380859 86.5956409,31.400387 86.0077474,32.125 C85.4198538,32.849613 85.1259114,33.8294209 85.1259114,35.0644531 C85.1259114,36.2858134 85.4141573,37.2633427 85.9906575,37.9970703 C86.5671578,38.7307979 87.3680938,39.0976562 88.3934896,39.0976562 C89.4052134,39.0976562 90.1993135,38.7307979 90.7758138,37.9970703 C91.3523141,37.2633427 91.6405599,36.2858134 91.6405599,35.0644531 C91.6405599,33.8294209 91.3511748,32.849613 90.7723958,32.125 C90.1936169,31.400387 89.4006561,31.0380859 88.3934896,31.0380859 Z M98.6434765,40.2324219 C99.6916589,40.2324219 100.576904,39.962405 101.299238,39.4223633 C102.021573,38.8823215 102.464765,38.1588587 102.628828,37.2519531 L101.377852,37.2519531 C101.222903,37.8216174 100.900478,38.2716455 100.410566,38.6020508 C99.9206551,38.9324561 99.331631,39.0976562 98.6434765,39.0976562 C97.6955551,39.0976562 96.9436095,38.7353552 96.3876172,38.0107422 C95.8316248,37.2861292 95.5536328,36.3063213 95.5536328,35.0712891 C95.5536328,33.8316995 95.8304855,32.849613 96.3841992,32.125 C96.9379129,31.400387 97.6887192,31.0380859 98.6366406,31.0380859 C99.3156805,31.0380859 99.9012866,31.2237937 100.393477,31.5952148 C100.885667,31.966636 101.213788,32.471351 101.377852,33.109375 L102.628828,33.109375 C102.482994,32.1568963 102.040941,31.3844431 101.302656,30.7919922 C100.564371,30.1995413 99.6757083,29.9033203 98.6366406,29.9033203 C97.2967902,29.9033203 96.2372304,30.3658808 95.4579297,31.2910156 C94.6786289,32.2161505 94.2889844,33.476229 94.2889844,35.0712891 C94.2889844,36.6617918 94.6797682,37.9195917 95.4613476,38.8447266 C96.2429271,39.7698614 97.3036261,40.2324219 98.6434765,40.2324219 Z M105.557526,40 L105.557526,30.1357422 L104.327057,30.1357422 L104.327057,40 L105.557526,40 Z M114.119036,40 L113.968646,39.5727539 C113.868385,39.2879218 113.753314,38.9598 113.623431,38.5883789 C113.493548,38.2169578 113.378477,37.8888361 113.278216,37.6040039 L113.127825,37.1767578 L109.203997,37.1767578 L108.212786,40 L106.920794,40 L110.557513,30.1357422 L111.77431,30.1357422 L115.411029,40 L114.119036,40 Z M111.111224,31.7285156 L110.953997,32.1728516 C110.849179,32.469077 110.720437,32.8359353 110.567767,33.2734375 L110.109759,34.5859375 C109.957089,35.0234397 109.828347,35.390298 109.723529,35.6865234 L109.566302,36.1308594 L112.765521,36.1308594 L111.220599,31.7285156 L111.111224,31.7285156 Z M122.762578,38.8925781 L118.004766,38.8925781 L118.004766,30.1357422 L116.774297,30.1357422 L116.774297,40 L122.762578,40 L122.762578,38.8925781 Z M131.914896,40.2324219 C132.963078,40.2324219 133.848323,39.962405 134.570658,39.4223633 C135.292992,38.8823215 135.736184,38.1588587 135.900247,37.2519531 L134.649271,37.2519531 C134.494322,37.8216174 134.171897,38.2716455 133.681986,38.6020508 C133.192074,38.9324561 132.60305,39.0976562 131.914896,39.0976562 C130.966974,39.0976562 130.215029,38.7353552 129.659036,38.0107422 C129.103044,37.2861292 128.825052,36.3063213 128.825052,35.0712891 C128.825052,33.8316995 129.101905,32.849613 129.655618,32.125 C130.209332,31.400387 130.960138,31.0380859 131.90806,31.0380859 C132.5871,31.0380859 133.172706,31.2237937 133.664896,31.5952148 C134.157086,31.966636 134.485207,32.471351 134.649271,33.109375 L135.900247,33.109375 C135.754413,32.1568963 135.31236,31.3844431 134.574075,30.7919922 C133.835791,30.1995413 132.947128,29.9033203 131.90806,29.9033203 C130.568209,29.9033203 129.50865,30.3658808 128.729349,31.2910156 C127.950048,32.2161505 127.560404,33.476229 127.560404,35.0712891 C127.560404,36.6617918 127.951187,37.9195917 128.732767,38.8447266 C129.514346,39.7698614 130.575045,40.2324219 131.914896,40.2324219 Z M145.473477,40 L145.473477,30.1357422 L144.243008,30.1357422 L144.243008,34.4013672 L138.828945,34.4013672 L138.828945,30.1357422 L137.598477,30.1357422 L137.598477,40 L138.828945,40 L138.828945,35.5087891 L144.243008,35.5087891 L144.243008,40 L145.473477,40 Z M154.034987,40 L153.884596,39.5727539 C153.784335,39.2879218 153.669265,38.9598 153.539381,38.5883789 C153.409498,38.2169578 153.294428,37.8888361 153.194167,37.6040039 L153.043776,37.1767578 L149.119948,37.1767578 L148.128737,40 L146.836745,40 L150.473464,30.1357422 L151.69026,30.1357422 L155.326979,40 L154.034987,40 Z M151.027174,31.7285156 L150.869948,32.1728516 C150.76513,32.469077 150.636387,32.8359353 150.483717,33.2734375 L150.02571,34.5859375 C149.87304,35.0234397 149.744297,35.390298 149.639479,35.6865234 L149.482253,36.1308594 L152.681471,36.1308594 L151.136549,31.7285156 L151.027174,31.7285156 Z M157.907044,40 L157.907044,32.3505859 L158.016419,32.3505859 L163.368958,40 L164.565247,40 L164.565247,30.1357422 L163.34845,30.1357422 L163.34845,37.8125 L163.239075,37.8125 L157.886536,30.1357422 L156.690247,30.1357422 L156.690247,40 L157.907044,40 Z M174.992969,36.1855469 L174.992969,34.9824219 L170.993945,34.9824219 L170.993945,36.0625 L173.769336,36.0625 L173.769336,36.3017578 C173.769336,37.1357464 173.49704,37.8102188 172.952441,38.3251953 C172.407842,38.8401718 171.693494,39.0976562 170.809375,39.0976562 C169.820438,39.0976562 169.037731,38.7364945 168.46123,38.0141602 C167.88473,37.2918258 167.596484,36.3086 167.596484,35.0644531 C167.596484,33.8385355 167.887009,32.8610063 168.468066,32.1318359 C169.049124,31.4026656 169.827274,31.0380859 170.802539,31.0380859 C171.536267,31.0380859 172.146938,31.2112613 172.63457,31.5576172 C173.122203,31.9039731 173.470832,32.4098274 173.680469,33.0751953 L174.931445,33.0751953 C174.75371,32.0953727 174.294567,31.3217802 173.554004,30.7543945 C172.81344,30.1870089 171.896294,29.9033203 170.802539,29.9033203 C169.453574,29.9033203 168.371228,30.373856 167.555469,31.3149414 C166.739709,32.2560268 166.331836,33.5058516 166.331836,35.0644531 C166.331836,36.6412839 166.736291,37.8968052 167.545215,38.8310547 C168.354138,39.7653042 169.439902,40.2324219 170.802539,40.2324219 C172.064915,40.2324219 173.078902,39.8621456 173.844531,39.121582 C174.61016,38.3810184 174.992969,37.4023498 174.992969,36.1855469 Z M182.911901,38.8925781 L178.031042,38.8925781 L178.031042,35.5019531 L182.658971,35.5019531 L182.658971,34.4082031 L178.031042,34.4082031 L178.031042,31.2431641 L182.911901,31.2431641 L182.911901,30.1357422 L176.800573,30.1357422 L176.800573,40 L182.911901,40 L182.911901,38.8925781 Z" id="FOR-SOCIAL-CHANGE" fill="#525252"></path>
                </g>
            </g>
        </g>
    </g>
</svg>