<?xml version="1.0" encoding="UTF-8"?>
<svg width="398px" height="65px" viewBox="0 0 398 65" version="1.1" xmlns="http://www.w3.org/2000/svg" xmlns:xlink="http://www.w3.org/1999/xlink">
    <!-- Generator: Sketch 44.1 (41455) - http://www.bohemiancoding.com/sketch -->
    <title>Logo</title>
    <desc>Created with Sketch.</desc>
    <defs></defs>
    <g id="Home" stroke="none" stroke-width="1" fill="none" fill-rule="evenodd">
        <g id="Logo" fill="#FFFFFF">
            <path d="M33.5,0 L43.8276204,7.45715061 L39.8828204,19.5230738 L27.1171796,19.5230738 L23.1723796,7.45715061 L33.5,0 Z M60.3059868,12.8157716 L61.0100745,25.5347771 L49.150548,30.0624232 L41.1168698,20.1416569 L48.0113102,9.48264006 L60.3059868,12.8157716 Z M66.983554,41.8430889 L57.3943205,50.2285192 L46.5250331,43.670582 L49.3966775,31.2321237 L62.0407387,30.1026708 L66.983554,41.8430889 Z M48.4526912,65 L35.9012878,62.8248882 L34.157498,50.2508219 L45.63118,44.6547332 L54.4660953,53.7702266 L48.4526912,65 Z M18.5473088,65 L12.5339047,53.7702266 L21.36882,44.6547332 L32.842502,50.2508219 L31.0987122,62.8248882 L18.5473088,65 Z M0.0164460265,41.8430889 L4.95926125,30.1026708 L17.6033225,31.2321237 L20.4749669,43.670582 L9.60567946,50.2285192 L0.0164460265,41.8430889 Z M6.69401317,12.8157716 L18.9886898,9.48264006 L25.8831302,20.1416569 L17.849452,30.0624232 L5.98992553,25.5347771 L6.69401317,12.8157716 Z" id="Polygon"></path>
            <path d="M107.474115,31.7565392 L95.1155936,31.7565392 L95.1155936,23.1073105 L106.833687,23.1073105 L106.833687,20.3172368 L95.1155936,20.3172368 L95.1155936,12.2434608 L107.474115,12.2434608 L107.474115,9.41851107 L92,9.41851107 L92,34.5814889 L107.474115,34.5814889 L107.474115,31.7565392 Z M117.061835,34.5814889 L117.061835,14.8940309 L117.217615,14.8940309 L130.891609,34.5814889 L133.920658,34.5814889 L133.920658,9.41851107 L130.839683,9.41851107 L130.839683,29.175721 L130.683903,29.175721 L117.009909,9.41851107 L113.980859,9.41851107 L113.980859,34.5814889 L117.061835,34.5814889 Z M150.778097,34.5814889 L150.778097,12.2434608 L158.826714,12.2434608 L158.826714,9.41851107 L139.613887,9.41851107 L139.613887,12.2434608 L147.662503,12.2434608 L147.662503,34.5814889 L150.778097,34.5814889 Z M167.635536,12.2085848 L167.635536,21.8517773 L173.780179,21.8517773 C175.38414,21.8517773 176.621711,21.4332704 177.492928,20.5962441 C178.364144,19.7592178 178.799746,18.5676357 178.799746,17.0214621 C178.799746,15.5101646 178.343951,14.3302077 177.432347,13.481556 C176.520743,12.6329043 175.257209,12.2085848 173.641708,12.2085848 L167.635536,12.2085848 Z M167.635536,24.6244131 L167.635536,34.5814889 L164.519942,34.5814889 L164.519942,9.41851107 L174.05712,9.41851107 C176.468833,9.41851107 178.398751,10.101491 179.846932,11.4674715 C181.295113,12.8334519 182.019193,14.6498881 182.019193,16.9168343 C182.019193,18.6722645 181.574937,20.189352 180.686411,21.4681422 C179.797886,22.7469324 178.568969,23.6362595 176.999625,24.1361502 L182.780782,34.5814889 L179.128614,34.5814889 L173.780179,24.6244131 L167.635536,24.6244131 Z M203.809655,31.7565392 L191.451133,31.7565392 L191.451133,23.1073105 L203.169227,23.1073105 L203.169227,20.3172368 L191.451133,20.3172368 L191.451133,12.2434608 L203.809655,12.2434608 L203.809655,9.41851107 L188.33554,9.41851107 L188.33554,34.5814889 L203.809655,34.5814889 L203.809655,31.7565392 Z M210.316399,9.41851107 L219.749724,9.41851107 C222.092201,9.41851107 224.010579,10.1683359 225.504918,11.668008 C226.999256,13.1676802 227.746414,15.1090871 227.746414,17.4922871 C227.746414,19.875487 226.993487,21.8227065 225.487609,23.334004 C223.981731,24.8453015 222.057583,25.600939 219.715106,25.600939 L213.431993,25.600939 L213.431993,34.5814889 L210.316399,34.5814889 L210.316399,9.41851107 Z M213.431993,12.2085848 L213.431993,22.8108652 L218.936208,22.8108652 C220.724799,22.8108652 222.106608,22.3429512 223.081678,21.4071093 C224.056749,20.4712674 224.544277,19.1663397 224.544277,17.4922871 C224.544277,15.8298598 224.056749,14.533651 223.081678,13.6036217 C222.106608,12.6735925 220.724799,12.2085848 218.936208,12.2085848 L213.431993,12.2085848 Z M236.832178,12.2085848 L236.832178,21.8517773 L242.976821,21.8517773 C244.580783,21.8517773 245.818353,21.4332704 246.68957,20.5962441 C247.560787,19.7592178 247.996388,18.5676357 247.996388,17.0214621 C247.996388,15.5101646 247.540593,14.3302077 246.628989,13.481556 C245.717385,12.6329043 244.453851,12.2085848 242.83835,12.2085848 L236.832178,12.2085848 Z M236.832178,24.6244131 L236.832178,34.5814889 L233.716584,34.5814889 L233.716584,9.41851107 L243.253763,9.41851107 C245.665475,9.41851107 247.595393,10.101491 249.043574,11.4674715 C250.491755,12.8334519 251.215835,14.6498881 251.215835,16.9168343 C251.215835,18.6722645 250.771579,20.189352 249.883053,21.4681422 C248.994528,22.7469324 247.765612,23.6362595 246.196268,24.1361502 L251.977425,34.5814889 L248.325257,34.5814889 L242.976821,24.6244131 L236.832178,24.6244131 Z M273.006297,31.7565392 L260.647776,31.7565392 L260.647776,23.1073105 L272.365869,23.1073105 L272.365869,20.3172368 L260.647776,20.3172368 L260.647776,12.2434608 L273.006297,12.2434608 L273.006297,9.41851107 L257.532182,9.41851107 L257.532182,34.5814889 L273.006297,34.5814889 L273.006297,31.7565392 Z M282.594017,34.5814889 L282.594017,14.8940309 L282.749797,14.8940309 L296.423791,34.5814889 L299.45284,34.5814889 L299.45284,9.41851107 L296.371865,9.41851107 L296.371865,29.175721 L296.216085,29.175721 L282.542091,9.41851107 L279.513041,9.41851107 L279.513041,34.5814889 L282.594017,34.5814889 Z M322.17798,31.7565392 L309.819459,31.7565392 L309.819459,23.1073105 L321.537553,23.1073105 L321.537553,20.3172368 L309.819459,20.3172368 L309.819459,12.2434608 L322.17798,12.2434608 L322.17798,9.41851107 L306.703865,9.41851107 L306.703865,34.5814889 L322.17798,34.5814889 L322.17798,31.7565392 Z M331.800318,9.41851107 L328.684725,9.41851107 L328.684725,25.7578806 C328.684725,28.4433401 329.564583,30.6550327 331.324325,32.3930248 C333.084067,34.131017 335.510167,35 338.602698,35 C341.706768,35 344.135752,34.131017 345.889725,32.3930248 C347.643698,30.6550327 348.520671,28.4433401 348.520671,25.7578806 L348.520671,9.41851107 L345.405077,9.41851107 L345.405077,25.5486251 C345.405077,27.4435597 344.813697,29.0100542 343.63092,30.2481556 C342.448142,31.486257 340.772085,32.1052985 338.602698,32.1052985 C336.44485,32.1052985 334.771677,31.486257 333.58313,30.2481556 C332.394583,29.0100542 331.800318,27.4435597 331.800318,25.5486251 L331.800318,9.41851107 Z M358.887289,12.2085848 L358.887289,21.8517773 L365.031932,21.8517773 C366.635894,21.8517773 367.873465,21.4332704 368.744681,20.5962441 C369.615898,19.7592178 370.0515,18.5676357 370.0515,17.0214621 C370.0515,15.5101646 369.595705,14.3302077 368.6841,13.481556 C367.772496,12.6329043 366.508963,12.2085848 364.893461,12.2085848 L358.887289,12.2085848 Z M358.887289,24.6244131 L358.887289,34.5814889 L355.771696,34.5814889 L355.771696,9.41851107 L365.308874,9.41851107 C367.720586,9.41851107 369.650504,10.101491 371.098685,11.4674715 C372.546867,12.8334519 373.270947,14.6498881 373.270947,16.9168343 C373.270947,18.6722645 372.82669,20.189352 371.938165,21.4681422 C371.049639,22.7469324 369.820723,23.6362595 368.251379,24.1361502 L374.032536,34.5814889 L370.380368,34.5814889 L365.031932,24.6244131 L358.887289,24.6244131 Z M378.392983,27.6586184 C378.542993,29.8790632 379.463238,31.6577174 381.153745,32.9946345 C382.844251,34.3315515 385.010721,35 387.653219,35 C390.526503,35 392.802595,34.3286452 394.481562,32.9859155 C396.160529,31.6431858 397,29.8209371 397,27.5191147 C397,25.717183 396.434583,24.2756593 395.303732,23.1945003 C394.172882,22.1133413 392.315083,21.2472646 389.730282,20.5962441 L387.116645,19.8987257 C385.420369,19.4569618 384.200107,18.9309219 383.455822,18.3205902 C382.711538,17.7102585 382.339401,16.9284644 382.339401,15.9751844 C382.339401,14.7428957 382.850007,13.7431293 383.871235,12.9758551 C384.892462,12.208581 386.210807,11.8249497 387.826308,11.8249497 C389.453348,11.8249497 390.774577,12.2143936 391.790035,12.9932931 C392.805493,13.7721926 393.382449,14.8358976 393.52092,16.18444 L396.636514,16.18444 C396.567278,14.0686234 395.719153,12.3422826 394.092113,11.0053655 C392.465072,9.66844849 390.411109,9 387.930161,9 C385.33382,9 383.213506,9.6626359 381.569157,10.9879276 C379.924808,12.3132192 379.102646,14.0221223 379.102646,16.1146881 C379.102646,19.4046666 381.318157,21.6192655 385.749245,22.7585513 L388.951383,23.5955734 C390.63612,24.025712 391.862151,24.5837211 392.629514,25.2696177 C393.396878,25.9555143 393.780553,26.8332162 393.780553,27.9027498 C393.780553,29.1350386 393.22956,30.1551491 392.127558,30.963112 C391.025555,31.7710749 389.632206,32.1750503 387.94747,32.1750503 C386.170418,32.1750503 384.693411,31.762356 383.516403,30.9369551 C382.339395,30.1115541 381.675896,29.0187861 381.525885,27.6586184 L378.392983,27.6586184 Z" id="ENTREPRENEURS" stroke="#FFFFFF"></path>
            <path d="M94.4569596,59.7299801 L94.4569596,54.7663799 L99.6291662,54.7663799 L99.6291662,53.4956982 L94.4569596,53.4956982 L94.4569596,49.556585 L100.090537,49.556585 L100.090537,48.2700199 L93,48.2700199 L93,59.7299801 L94.4569596,59.7299801 Z M106.965983,48 C108.628005,48 109.933859,48.5400343 110.883586,49.6201191 C111.833312,50.7002039 112.308168,52.158826 112.308168,53.9960291 C112.308168,55.8279377 111.834661,57.2865598 110.887633,58.3719391 C109.940604,59.4573185 108.633401,60 106.965983,60 C105.293169,60 103.98057,59.4573185 103.028145,58.3719391 C102.07572,57.2865598 101.599515,55.8279377 101.599515,53.9960291 C101.599515,52.1535315 102.081116,50.6935858 103.044333,49.6161482 C104.00755,48.5387107 105.314754,48 106.965983,48 Z M106.965983,49.3183322 C105.778825,49.3183322 104.837207,49.7392413 104.1411,50.5810721 C103.444994,51.422903 103.096946,52.5612106 103.096946,53.9960291 C103.096946,55.4149641 103.438249,56.5506245 104.120865,57.4030443 C104.803481,58.2554642 105.751844,58.6816678 106.965983,58.6816678 C108.163934,58.6816678 109.104203,58.2554642 109.786819,57.4030443 C110.469435,56.5506245 110.810738,55.4149641 110.810738,53.9960291 C110.810738,52.5612106 110.468086,51.422903 109.782772,50.5810721 C109.097458,49.7392413 108.158537,49.3183322 106.965983,49.3183322 Z M115.85689,49.5407015 L115.85689,53.9245533 L118.730338,53.9245533 C119.480406,53.9245533 120.059137,53.7352765 120.466549,53.3567174 C120.87396,52.9781583 121.077662,52.4368003 121.077662,51.7326274 C121.077662,51.0443381 120.864516,50.506951 120.438219,50.12045 C120.011921,49.7339491 119.421049,49.5407015 118.665585,49.5407015 L115.85689,49.5407015 Z M115.85689,55.1952349 L115.85689,59.7299801 L114.399931,59.7299801 L114.399931,48.2700199 L118.859846,48.2700199 C119.987646,48.2700199 120.890143,48.581069 121.567362,49.2031767 C122.244582,49.8252844 122.583187,50.6525428 122.583187,51.6849768 C122.583187,52.4844514 122.375437,53.1753776 121.959932,53.7577763 C121.544427,54.340175 120.969743,54.7452007 120.235863,54.9728657 L122.939333,59.7299801 L121.231452,59.7299801 L118.730338,55.1952349 L115.85689,55.1952349 Z M128.482686,56.7359365 C128.558233,57.7260142 128.991269,58.5175351 129.781809,59.1105228 C130.572348,59.7035106 131.585464,60 132.821188,60 C134.159439,60 135.221121,59.6889508 136.006264,59.0668432 C136.791407,58.4447355 137.183973,57.6068881 137.183973,56.553276 C137.183973,55.7114452 136.920913,55.0416967 136.394786,54.5440106 C135.868659,54.0463244 135.001238,53.6492404 133.792495,53.3527465 L132.570267,53.0350761 C131.766238,52.8338838 131.190205,52.5929862 130.842151,52.3123759 C130.494098,52.0317656 130.320074,51.6664483 130.320074,51.216413 C130.320074,50.6340143 130.556153,50.1681023 131.028319,49.8186631 C131.500484,49.4692239 132.125081,49.2945069 132.90213,49.2945069 C133.630614,49.2945069 134.228231,49.4599586 134.695,49.790867 C135.161769,50.1217753 135.446413,50.5810692 135.54894,51.1687624 L137.013994,51.1687624 C136.954636,50.2422191 136.544533,49.4824649 135.783673,48.8894772 C135.022812,48.2964894 134.078496,48 132.950696,48 C131.714972,48 130.718044,48.3004603 129.959881,48.9013898 C129.201719,49.5023194 128.822644,50.2898694 128.822644,51.2640635 C128.822644,52.0794217 129.06277,52.7319631 129.543029,53.2217075 C130.023289,53.7114518 130.792232,54.0886817 131.849882,54.3534083 L133.347313,54.7346128 C134.151342,54.9305106 134.742215,55.1899388 135.119947,55.5129054 C135.497679,55.8358719 135.686542,56.2408976 135.686542,56.7279947 C135.686542,57.2945098 135.428879,57.7643926 134.913544,58.1376572 C134.39821,58.5109218 133.746631,58.6975513 132.95879,58.6975513 C132.127779,58.6975513 131.442475,58.5201871 130.902858,58.1654533 C130.363241,57.8107196 130.047569,57.3342187 129.955834,56.7359365 L128.482686,56.7359365 Z M144.083702,48 C145.745723,48 147.051578,48.5400343 148.001304,49.6201191 C148.951031,50.7002039 149.425887,52.158826 149.425887,53.9960291 C149.425887,55.8279377 148.95238,57.2865598 148.005351,58.3719391 C147.058323,59.4573185 145.75112,60 144.083702,60 C142.410888,60 141.098288,59.4573185 140.145864,58.3719391 C139.193439,57.2865598 138.717234,55.8279377 138.717234,53.9960291 C138.717234,52.1535315 139.198835,50.6935858 140.162052,49.6161482 C141.125269,48.5387107 142.432473,48 144.083702,48 Z M144.083702,49.3183322 C142.896544,49.3183322 141.954925,49.7392413 141.258819,50.5810721 C140.562713,51.422903 140.214665,52.5612106 140.214665,53.9960291 C140.214665,55.4149641 140.555968,56.5506245 141.238584,57.4030443 C141.921199,58.2554642 142.869563,58.6816678 144.083702,58.6816678 C145.281652,58.6816678 146.221922,58.2554642 146.904538,57.4030443 C147.587154,56.5506245 147.928456,55.4149641 147.928456,53.9960291 C147.928456,52.5612106 147.585804,51.422903 146.90049,50.5810721 C146.215176,49.7392413 145.276256,49.3183322 144.083702,49.3183322 Z M156.220391,60 C157.461511,60 158.509702,59.6863036 159.364996,59.0589014 C160.220289,58.4314992 160.745059,57.5910046 160.939321,56.5373925 L159.458079,56.5373925 C159.274609,57.1992091 158.892836,57.7220365 158.312747,58.1058901 C157.732658,58.4897438 157.035213,58.6816678 156.220391,58.6816678 C155.097987,58.6816678 154.207632,58.2607587 153.549299,57.4189279 C152.890965,56.577097 152.561804,55.4387894 152.561804,54.0039709 C152.561804,52.5638578 152.889616,51.422903 153.545251,50.5810721 C154.200887,49.7392413 155.089893,49.3183322 156.212297,49.3183322 C157.016327,49.3183322 157.709725,49.5340812 158.292512,49.9655857 C158.875298,50.3970902 159.263817,50.983451 159.458079,51.7246856 L160.939321,51.7246856 C160.766644,50.6181282 160.243223,49.7207182 159.369043,49.0324289 C158.494863,48.3441395 157.442625,48 156.212297,48 C154.625822,48 153.37123,48.5373871 152.448485,49.6121774 C151.525739,50.6869677 151.064373,52.1508842 151.064373,54.0039709 C151.064373,55.851763 151.527088,57.3130323 152.452532,58.3878226 C153.377976,59.4626129 154.633916,60 156.220391,60 Z M164.407101,59.7299801 L164.407101,48.2700199 L162.950142,48.2700199 L162.950142,59.7299801 L164.407101,59.7299801 Z M174.544518,59.7299801 L174.366445,59.2336201 C174.24773,58.9027118 174.111478,58.5215111 173.957687,58.0900066 C173.803896,57.6585021 173.667645,57.2773015 173.548929,56.9463931 L173.370856,56.4500331 L168.724774,56.4500331 L167.551112,59.7299801 L166.021305,59.7299801 L170.32743,48.2700199 L171.768201,48.2700199 L176.074326,59.7299801 L174.544518,59.7299801 Z M170.983061,50.12045 L170.796894,50.6366645 C170.672782,50.9808091 170.520343,51.4070127 170.339571,51.9152879 L169.797258,53.4401059 C169.616486,53.9483811 169.464047,54.3745846 169.339935,54.7187293 L169.153768,55.2349437 L172.941863,55.2349437 L171.112569,50.12045 L170.983061,50.12045 Z M184.779066,58.443415 L179.145489,58.443415 L179.145489,48.2700199 L177.688529,48.2700199 L177.688529,59.7299801 L184.779066,59.7299801 L184.779066,58.443415 Z M195.616039,60 C196.857159,60 197.90535,59.6863036 198.760644,59.0589014 C199.615937,58.4314992 200.140707,57.5910046 200.33497,56.5373925 L198.853727,56.5373925 C198.670257,57.1992091 198.288484,57.7220365 197.708395,58.1058901 C197.128307,58.4897438 196.430862,58.6816678 195.616039,58.6816678 C194.493635,58.6816678 193.60328,58.2607587 192.944947,57.4189279 C192.286614,56.577097 191.957452,55.4387894 191.957452,54.0039709 C191.957452,52.5638578 192.285265,51.422903 192.9409,50.5810721 C193.596535,49.7392413 194.485541,49.3183322 195.607945,49.3183322 C196.411975,49.3183322 197.105373,49.5340812 197.68816,49.9655857 C198.270946,50.3970902 198.659465,50.983451 198.853727,51.7246856 L200.33497,51.7246856 C200.162292,50.6181282 199.638871,49.7207182 198.764691,49.0324289 C197.890511,48.3441395 196.838273,48 195.607945,48 C194.02147,48 192.766878,48.5373871 191.844133,49.6121774 C190.921387,50.6869677 190.460021,52.1508842 190.460021,54.0039709 C190.460021,55.851763 190.922736,57.3130323 191.84818,58.3878226 C192.773624,59.4626129 194.029564,60 195.616039,60 Z M211.670331,59.7299801 L211.670331,48.2700199 L210.213372,48.2700199 L210.213372,53.2256784 L203.802749,53.2256784 L203.802749,48.2700199 L202.34579,48.2700199 L202.34579,59.7299801 L203.802749,59.7299801 L203.802749,54.5122435 L210.213372,54.5122435 L210.213372,59.7299801 L211.670331,59.7299801 Z M221.807748,59.7299801 L221.629675,59.2336201 C221.51096,58.9027118 221.374708,58.5215111 221.220917,58.0900066 C221.067126,57.6585021 220.930875,57.2773015 220.812159,56.9463931 L220.634086,56.4500331 L215.988004,56.4500331 L214.814342,59.7299801 L213.284535,59.7299801 L217.59066,48.2700199 L219.031431,48.2700199 L223.337556,59.7299801 L221.807748,59.7299801 Z M218.246291,50.12045 L218.060124,50.6366645 C217.936012,50.9808091 217.783573,51.4070127 217.602801,51.9152879 L217.060488,53.4401059 C216.879716,53.9483811 216.727277,54.3745846 216.603165,54.7187293 L216.416998,55.2349437 L220.205093,55.2349437 L218.375799,50.12045 L218.246291,50.12045 Z M226.39253,59.7299801 L226.39253,50.8431502 L226.522038,50.8431502 L232.859812,59.7299801 L234.276301,59.7299801 L234.276301,48.2700199 L232.835529,48.2700199 L232.835529,57.1886168 L232.706022,57.1886168 L226.368248,48.2700199 L224.951759,48.2700199 L224.951759,59.7299801 L226.39253,59.7299801 Z M246.62344,55.2984778 L246.62344,53.900728 L241.888321,53.900728 L241.888321,55.1555261 L245.174574,55.1555261 L245.174574,55.4334878 C245.174574,56.4023874 244.852158,57.1859666 244.207315,57.7842488 C243.562472,58.3825311 242.716635,58.6816678 241.669777,58.6816678 C240.498807,58.6816678 239.572028,58.2620823 238.889412,57.4228987 C238.206796,56.5837152 237.865494,55.4414367 237.865494,53.9960291 C237.865494,52.5717996 238.209495,51.4361392 238.897507,50.5890139 C239.585519,49.7418886 240.506902,49.3183322 241.661683,49.3183322 C242.530467,49.3183322 243.253543,49.5195215 243.830934,49.921906 C244.408324,50.3242906 244.821125,50.911975 245.069349,51.6849768 L246.550592,51.6849768 C246.340141,50.5466522 245.796485,49.6479186 244.919606,48.9887492 C244.042728,48.3295798 242.956764,48 241.661683,48 C240.064415,48 238.782843,48.5466524 237.816928,49.6399735 C236.851013,50.7332947 236.368063,52.1852987 236.368063,53.9960291 C236.368063,55.8279377 236.846966,57.2865598 237.804787,58.3719391 C238.762608,59.4573185 240.048227,60 241.661683,60 C243.156423,60 244.357054,59.5698256 245.263611,58.7094639 C246.170168,57.8491023 246.62344,56.7121183 246.62344,55.2984778 Z M256,58.443415 L250.220727,58.443415 L250.220727,54.5043018 L255.700514,54.5043018 L255.700514,53.2336201 L250.220727,53.2336201 L250.220727,49.556585 L256,49.556585 L256,48.2700199 L248.763767,48.2700199 L248.763767,59.7299801 L256,59.7299801 L256,58.443415 Z" id="FOR-SOCIAL-CHANGE"></path>
        </g>
    </g>
</svg>